<svg xmlns="http://www.w3.org/2000/svg" width="388" height="270" viewBox="0 0 388 270"><defs><style>.a{fill:none;}.b{fill:#f6f6f6;}.c{fill:#e4e4e4;}</style></defs><path class="a" d="M0,0H388V265.454H0Z"/><path class="b" d="M7,0H381a7,7,0,0,1,7,7V270a0,0,0,0,1,0,0H0a0,0,0,0,1,0,0V7A7,7,0,0,1,7,0Z"/><g transform="translate(116.885 81.773)"><path class="c" d="M140.251,72H12.75A12.765,12.765,0,0,0,0,84.75v81.6A12.765,12.765,0,0,0,12.75,179.1h127.5a11.8,11.8,0,0,0,2.134-.186A12.715,12.715,0,0,0,153,166.351V84.75A12.765,12.765,0,0,0,140.251,72ZM12.75,174a7.65,7.65,0,0,1-7.619-6.977l50.842-33.242L107.677,174Zm135.151-7.65a7.632,7.632,0,0,1-6.4,7.54,6.931,6.931,0,0,1-1.25.11H115.983L82.2,147.708l30.213-24.159,35.491,21.3Zm0-27.454-34.387-20.632a2.55,2.55,0,0,0-2.907.194L78.051,144.495,57.664,128.638a2.55,2.55,0,0,0-2.958-.122L5.1,160.95V84.75a7.65,7.65,0,0,1,7.65-7.65h127.5a7.65,7.65,0,0,1,7.65,7.65Z" transform="translate(0 -72)"/><path class="c" d="M207.3,120a15.3,15.3,0,1,0,15.3,15.3A15.3,15.3,0,0,0,207.3,120Zm0,25.5a10.2,10.2,0,1,1,10.2-10.2A10.2,10.2,0,0,1,207.3,145.5Z" transform="translate(-130.8 -104.7)"/></g></svg>