<svg xmlns="http://www.w3.org/2000/svg" width="24" height="24" viewBox="0 0 24 24"><defs><style>.a,.b{fill:#fff;}.a{opacity:0;}</style></defs><g transform="translate(-8 -8)"><g transform="translate(8 8)"><rect class="a" width="24" height="24"/><path class="b" d="M30.707-3.565a1,1,0,0,1,0-1.414l4.949-4.95-4.949-4.95a1,1,0,0,1,0-1.414,1,1,0,0,1,1.414,0l5.657,5.656a1,1,0,0,1,.293.707,1,1,0,0,1-.293.707L32.121-3.565a1,1,0,0,1-.707.293A1,1,0,0,1,30.707-3.565Z" transform="translate(-22.071 21.929)"/></g></g></svg>